<svg xmlns="http://www.w3.org/2000/svg" viewBox="0 0 30 30">
  <path fill="rgba(255, 255, 255, 0.6)" d="M7.56 17.19c0-.88.24-1.89.72-3.03s1.1-2.25 1.86-3.31a36.4 36.4 0 0 1 4.06-4.67l.75-.72c.25.26.53.5.83.72.41.42 1.04 1.11 1.88 2.09s1.57 1.85 2.17 2.65c.71 1.01 1.32 2.1 1.81 3.25s.74 2.16.74 3.03a7.44 7.44 0 0 1-2.15 5.22 7.4 7.4 0 0 1-5.28 2.17c-1 0-1.95-.19-2.86-.57a7.23 7.23 0 0 1-4.53-6.83zm2.26-2.93c0 .83.17 1.49.52 1.99.35.49.88.74 1.59.74.72 0 1.25-.25 1.61-.74.35-.49.53-1.15.54-1.99a3.49 3.49 0 0 0-.54-2c-.35-.49-.89-.74-1.61-.74-.71 0-1.24.25-1.59.74-.35.5-.52 1.16-.52 2zm1.57 0v-.35l.02-.33c.01-.14.02-.25.05-.32l.09-.24c.04-.08.09-.15.15-.18a.44.44 0 0 1 .23-.06c.14 0 .25.04.33.12s.14.21.17.38a5.16 5.16 0 0 1 .07.97l-.01.52-.06.45c-.03.17-.09.3-.17.38s-.19.12-.33.12a.44.44 0 0 1-.23-.06.34.34 0 0 1-.15-.18 1.44 1.44 0 0 1-.14-.56l-.02-.32v-.34zm.59 7.75h1.32l4.99-10.74h-1.35l-4.96 10.74zm4.3-2.99c.01.84.2 1.5.55 2 .35.49.89.74 1.6.74.72 0 1.25-.25 1.6-.74.35-.49.52-1.16.53-2a3.43 3.43 0 0 0-.53-1.99c-.35-.49-.88-.74-1.6-.74-.71 0-1.25.25-1.6.74a3.36 3.36 0 0 0-.55 1.99zm1.57 0l.01-.52.06-.45c.03-.18.09-.3.17-.38s.19-.12.33-.12c.09 0 .17.02.24.06.07.04.12.1.16.19l.1.24c.03.07.04.18.05.32l.01.32v.69l-.01.32-.05.32-.1.24-.16.19-.24.06c-.14 0-.25-.04-.33-.12s-.14-.21-.17-.38a5.72 5.72 0 0 1-.07-.98z"/>
</svg>
