<svg xmlns="http://www.w3.org/2000/svg" viewBox="0 0 30 30">
  <path fill="rgba(255, 255, 255, 0.6)" d="M4.61 16.88c0-1.15.36-2.17 1.08-3.07a4.76 4.76 0 0 1 2.74-1.73c.31-1.37 1.02-2.49 2.11-3.37s2.35-1.32 3.76-1.32c1.38 0 2.61.43 3.69 1.28s1.78 1.95 2.1 3.29h.33a4.97 4.97 0 0 1 4.3 2.44 4.94 4.94 0 0 1-4.1 7.45H9.41a4.87 4.87 0 0 1-3.4-1.53 4.75 4.75 0 0 1-1.4-3.44zm1.71 0c0 .87.3 1.62.9 2.26s1.33.98 2.19 1.03H20.6a3.1 3.1 0 0 0 2.19-1.03 3.17 3.17 0 0 0-.07-4.53 3.19 3.19 0 0 0-2.32-.96h-1.6c-.11 0-.17-.06-.17-.18l-.07-.57a4.09 4.09 0 0 0-1.4-2.72 4.17 4.17 0 0 0-2.86-1.1 4.1 4.1 0 0 0-2.85 1.1 4.05 4.05 0 0 0-1.37 2.72l-.08.57c0 .12-.07.18-.2.18h-.53a3.3 3.3 0 0 0-2.95 3.23z"/>
</svg>
