<?xml version="1.0" encoding="UTF-8" standalone="no"?>
<svg
   xmlns:dc="http://purl.org/dc/elements/1.1/"
   xmlns:cc="http://creativecommons.org/ns#"
   xmlns:rdf="http://www.w3.org/1999/02/22-rdf-syntax-ns#"
   xmlns:svg="http://www.w3.org/2000/svg"
   xmlns="http://www.w3.org/2000/svg"
   xmlns:sodipodi="http://sodipodi.sourceforge.net/DTD/sodipodi-0.dtd"
   xmlns:inkscape="http://www.inkscape.org/namespaces/inkscape"
   viewBox="0 0 15 25"
   version="1.1"
   id="svg65"
   sodipodi:docname="low.svg"
   width="15"
   height="25"
   inkscape:version="0.92.1 r15371">
  <metadata
     id="metadata71">
    <rdf:RDF>
      <cc:Work
         rdf:about="">
        <dc:format>image/svg+xml</dc:format>
        <dc:type
           rdf:resource="http://purl.org/dc/dcmitype/StillImage" />
        <dc:title></dc:title>
      </cc:Work>
    </rdf:RDF>
  </metadata>
  <defs
     id="defs69" />
  <sodipodi:namedview
     pagecolor="#ffffff"
     bordercolor="#666666"
     borderopacity="1"
     objecttolerance="10"
     gridtolerance="10"
     guidetolerance="10"
     inkscape:pageopacity="0"
     inkscape:pageshadow="2"
     inkscape:window-width="1366"
     inkscape:window-height="704"
     id="namedview67"
     showgrid="false"
     inkscape:pagecheckerboard="true"
     inkscape:zoom="17.033333"
     inkscape:cx="15.117417"
     inkscape:cy="15"
     inkscape:window-x="1600"
     inkscape:window-y="108"
     inkscape:window-maximized="1"
     inkscape:current-layer="svg65" />
  <path fill="rgba(255, 255, 255, 0.5)"
     d="m 2.4401197,15.356156 c -0.01,-0.35 0.1,-0.65 0.34,-0.9 0.24,-0.25 0.53,-0.37 0.89,-0.36 0.34,-0.02 0.63,0.1 0.88,0.37 l 1.66,1.64 V 5.8061563 c -0.01,-0.35 0.11,-0.64 0.36,-0.88 0.25,-0.24 0.55,-0.35 0.92,-0.34 0.34,-0.02 0.64,0.09 0.89,0.32 0.25,0.23 0.39,0.53 0.4,0.88 V 16.086156 l 1.6399993,-1.64 c 0.23,-0.24 0.53,-0.37 0.88,-0.37 a 1.22,1.22 0 0 1 1.26,1.25 1.13,1.13 0 0 1 -0.4,0.85 l -3.7399993,3.84 a 1.47,1.47 0 0 1 -0.92,0.4 c -0.37,-0.02 -0.68,-0.16 -0.92,-0.41 l -3.75,-3.81 c -0.26,-0.22 -0.39,-0.5 -0.39,-0.84 z"
     id="path63"
     inkscape:connector-curvature="0" />
</svg>
