<svg xmlns="http://www.w3.org/2000/svg" viewBox="0 0 30 30">
  <path fill="rgba(255, 255, 255, 0.6)" d="M3.1 16.97c0 .24.09.45.28.62.16.19.37.28.63.28H18.7c.29 0 .53.1.73.3.2.2.3.45.3.74s-.1.53-.3.72c-.2.19-.44.29-.74.29a1 1 0 0 1-.73-.29.76.76 0 0 0-.6-.26c-.25 0-.46.09-.64.26s-.27.38-.27.61c0 .25.09.46.28.63a2.8 2.8 0 0 0 3.97.02c.56-.54.83-1.19.83-1.97s-.28-1.44-.84-2a2.74 2.74 0 0 0-2-.84H4.01a.9.9 0 0 0-.64.26.83.83 0 0 0-.27.63zm0-3.28c0 .23.09.43.28.61.17.18.38.26.63.26h20.04c.78 0 1.45-.27 2.01-.82.56-.54.84-1.2.84-1.97s-.28-1.44-.84-1.99-1.23-.83-2.01-.83c-.77 0-1.42.27-1.95.8a.85.85 0 0 0-.27.67c0 .26.09.47.26.63.17.16.38.24.63.24.24 0 .45-.08.63-.24a.9.9 0 0 1 .7-.31c.29 0 .53.1.73.3.2.2.3.44.3.73s-.1.53-.3.72c-.2.19-.44.29-.73.29H4.01a.9.9 0 0 0-.91.91z"/>
</svg>
